<svg xmlns="http://www.w3.org/2000/svg" viewBox="0 0 60 40">
  <rect width="60" height="40" fill="#012169"/>
  <polygon points="0,0 7,0 60,33 60,40 53,40 0,7" fill="#fff"/>
  <polygon points="60,0 53,0 0,33 0,40 7,40 60,7" fill="#fff"/>
  <polygon points="0,0 4,0 60,36 60,40 56,40 0,4" fill="#c8102e"/>
  <polygon points="60,0 56,0 0,36 0,40 4,40 60,4" fill="#c8102e"/>
  <rect x="0" y="16" width="60" height="8" fill="#fff"/>
  <rect x="26" y="0" width="8" height="40" fill="#fff"/>
  <rect x="0" y="17.5" width="60" height="5" fill="#c8102e"/>
  <rect x="27.5" y="0" width="5" height="40" fill="#c8102e"/>
</svg>
